<svg width="1919" height="1075" viewBox="0 0 1919 1075" fill="none" xmlns="http://www.w3.org/2000/svg">
    <g clip-path="url(#clip0_56_57)">
        <path d="M0 1077.21C20.2 1070.96 60.6 1067.03 101 1045.99C141.4 1024.94 161.6 993.823 202 971.999C242.4 950.176 262.6 953.462 303 936.869C343.4 920.275 363.6 889.679 404 889.033C444.4 888.388 464.6 936.513 505 933.641C545.4 930.769 565.6 910.298 606 874.672C646.4 839.047 666.6 786.415 707 755.514C747.4 724.614 767.6 709.627 808 720.168C848.4 730.71 868.6 830.108 909 808.222C949.4 786.336 969.6 666.628 1010 610.738C1050.4 554.848 1070.6 503.428 1111 528.773C1151.4 554.118 1171.6 728.865 1212 737.462C1252.4 746.059 1272.6 638.51 1313 571.757C1353.4 505.004 1373.6 404.372 1414 403.698C1454.4 403.024 1474.6 544.541 1515 568.387C1555.4 592.232 1575.6 589.534 1616 522.927C1656.4 456.32 1676.6 256.39 1717 235.352C1757.4 214.313 1777.6 459.075 1818 417.735C1858.4 376.395 1898.8 106.471 1919 28.655L1920 1080H0V1077.21Z" fill="black" fill-opacity="0.12"/>
        <path d="M0 1077.21C20.2 1070.96 60.6 1067.03 101 1045.99C141.4 1024.94 161.6 993.823 202 971.999C242.4 950.176 262.6 953.462 303 936.869C343.4 920.275 363.6 889.679 404 889.033C444.4 888.388 464.6 936.513 505 933.641C545.4 930.769 565.6 910.298 606 874.672C646.4 839.047 666.6 786.415 707 755.514C747.4 724.614 767.6 709.627 808 720.168C848.4 730.71 868.6 830.108 909 808.222C949.4 786.336 969.6 666.628 1010 610.738C1050.4 554.848 1070.6 503.428 1111 528.773C1151.4 554.118 1171.6 728.865 1212 737.462C1252.4 746.059 1272.6 638.51 1313 571.757C1353.4 505.004 1373.6 404.372 1414 403.698C1454.4 403.024 1474.6 544.541 1515 568.387C1555.4 592.232 1575.6 589.534 1616 522.927C1656.4 456.32 1676.6 256.39 1717 235.352C1757.4 214.313 1777.6 459.075 1818 417.735C1858.4 376.395 1898.8 106.471 1919 28.655" stroke="white" stroke-width="4"/>
        <path d="M0 1085.21C4.41828 1085.21 8 1081.63 8 1077.21C8 1072.79 4.41828 1069.21 0 1069.21C-4.41828 1069.21 -8 1072.79 -8 1077.21C-8 1081.63 -4.41828 1085.21 0 1085.21Z" fill="white"/>
        <path d="M101 1053.99C105.418 1053.99 109 1050.4 109 1045.99C109 1041.57 105.418 1037.99 101 1037.99C96.5817 1037.99 93 1041.57 93 1045.99C93 1050.4 96.5817 1053.99 101 1053.99Z" fill="white"/>
        <path d="M202 979.999C206.418 979.999 210 976.417 210 971.999C210 967.581 206.418 963.999 202 963.999C197.582 963.999 194 967.581 194 971.999C194 976.417 197.582 979.999 202 979.999Z" fill="white"/>
        <path d="M303 944.869C307.418 944.869 311 941.287 311 936.869C311 932.451 307.418 928.869 303 928.869C298.582 928.869 295 932.451 295 936.869C295 941.287 298.582 944.869 303 944.869Z" fill="white"/>
        <path d="M404 897.033C408.418 897.033 412 893.451 412 889.033C412 884.615 408.418 881.033 404 881.033C399.582 881.033 396 884.615 396 889.033C396 893.451 399.582 897.033 404 897.033Z" fill="white"/>
        <path d="M505 941.641C509.418 941.641 513 938.059 513 933.641C513 929.223 509.418 925.641 505 925.641C500.582 925.641 497 929.223 497 933.641C497 938.059 500.582 941.641 505 941.641Z" fill="white"/>
        <path d="M606 882.672C610.418 882.672 614 879.09 614 874.672C614 870.254 610.418 866.672 606 866.672C601.582 866.672 598 870.254 598 874.672C598 879.09 601.582 882.672 606 882.672Z" fill="white"/>
        <path d="M707 763.514C711.418 763.514 715 759.932 715 755.514C715 751.096 711.418 747.514 707 747.514C702.582 747.514 699 751.096 699 755.514C699 759.932 702.582 763.514 707 763.514Z" fill="white"/>
        <path d="M808 728.168C812.418 728.168 816 724.586 816 720.168C816 715.75 812.418 712.168 808 712.168C803.582 712.168 800 715.75 800 720.168C800 724.586 803.582 728.168 808 728.168Z" fill="white"/>
        <path d="M909 816.222C913.418 816.222 917 812.64 917 808.222C917 803.804 913.418 800.222 909 800.222C904.582 800.222 901 803.804 901 808.222C901 812.64 904.582 816.222 909 816.222Z" fill="white"/>
        <path d="M1010 618.738C1014.42 618.738 1018 615.156 1018 610.738C1018 606.32 1014.42 602.738 1010 602.738C1005.58 602.738 1002 606.32 1002 610.738C1002 615.156 1005.58 618.738 1010 618.738Z" fill="white"/>
        <path d="M1111 536.773C1115.42 536.773 1119 533.191 1119 528.773C1119 524.355 1115.42 520.773 1111 520.773C1106.58 520.773 1103 524.355 1103 528.773C1103 533.191 1106.58 536.773 1111 536.773Z" fill="white"/>
        <path d="M1212 745.462C1216.42 745.462 1220 741.88 1220 737.462C1220 733.044 1216.42 729.462 1212 729.462C1207.58 729.462 1204 733.044 1204 737.462C1204 741.88 1207.58 745.462 1212 745.462Z" fill="white"/>
        <path d="M1313 579.757C1317.42 579.757 1321 576.175 1321 571.757C1321 567.339 1317.42 563.757 1313 563.757C1308.58 563.757 1305 567.339 1305 571.757C1305 576.175 1308.58 579.757 1313 579.757Z" fill="white"/>
        <path d="M1414 411.698C1418.42 411.698 1422 408.116 1422 403.698C1422 399.28 1418.42 395.698 1414 395.698C1409.58 395.698 1406 399.28 1406 403.698C1406 408.116 1409.58 411.698 1414 411.698Z" fill="white"/>
        <path d="M1515 576.387C1519.42 576.387 1523 572.805 1523 568.387C1523 563.969 1519.42 560.387 1515 560.387C1510.58 560.387 1507 563.969 1507 568.387C1507 572.805 1510.58 576.387 1515 576.387Z" fill="white"/>
        <path d="M1616 530.927C1620.42 530.927 1624 527.345 1624 522.927C1624 518.509 1620.42 514.927 1616 514.927C1611.58 514.927 1608 518.509 1608 522.927C1608 527.345 1611.58 530.927 1616 530.927Z" fill="white"/>
        <path d="M1717 243.352C1721.42 243.352 1725 239.77 1725 235.352C1725 230.934 1721.42 227.352 1717 227.352C1712.58 227.352 1709 230.934 1709 235.352C1709 239.77 1712.58 243.352 1717 243.352Z" fill="white"/>
        <path d="M1818 425.735C1822.42 425.735 1826 422.153 1826 417.735C1826 413.317 1822.42 409.735 1818 409.735C1813.58 409.735 1810 413.317 1810 417.735C1810 422.153 1813.58 425.735 1818 425.735Z" fill="white"/>
        <path d="M1919 36.655C1923.42 36.655 1927 33.0733 1927 28.655C1927 24.2367 1923.42 20.655 1919 20.655C1914.58 20.655 1911 24.2367 1911 28.655C1911 33.0733 1914.58 36.655 1919 36.655Z" fill="white"/>
    </g>
    <defs>
        <clipPath id="clip0_56_57">
            <rect width="1920" height="1080" fill="white"/>
        </clipPath>
    </defs>
</svg>
